<svg xmlns="http://www.w3.org/2000/svg" version="1.1" xmlns:xlink="http://www.w3.org/1999/xlink" xmlns:svgjs="http://svgjs.dev/svgjs" width="1000" height="623" viewBox="0 0 1000 623"><g transform="matrix(1,0,0,1,-0.6060606060606233,0.2522267206477409)"><svg viewBox="0 0 396 247" data-background-color="#ffffff" preserveAspectRatio="xMidYMid meet" height="623" width="1000" xmlns="http://www.w3.org/2000/svg" xmlns:xlink="http://www.w3.org/1999/xlink"><g id="tight-bounds" transform="matrix(1,0,0,1,0.2400000000000091,-0.09999999999999432)"><svg viewBox="0 0 395.52 247.2" height="247.2" width="395.52"><g><svg></svg></g><g><svg viewBox="0 0 395.52 247.2" height="247.2" width="395.52"><g transform="matrix(1,0,0,1,135.37908,47.215199999999996)"><svg viewBox="0 0 124.76184 152.7696" height="152.7696" width="124.76184"><g><svg viewBox="0 0 124.76184 152.7696" height="152.7696" width="124.76184"><g><svg viewBox="0 0 124.76184 152.7696" height="152.7696" width="124.76184"><g><svg viewBox="0 0 124.76184 152.7696" height="152.7696" width="124.76184"><g id="textblocktransform"><svg viewBox="0 0 124.76184 152.7696" height="152.7696" width="124.76184" id="textblock"><g><svg viewBox="0 0 124.76184 152.7696" height="152.7696" width="124.76184"><g transform="matrix(1,0,0,1,0,0)"><svg width="124.76184" viewBox="4.900000095367432 -33 26.950000762939453 33" height="152.7696" data-palette-color="#61777f"><path d="M4.9-33L18.35-33Q23.65-33 26.78-30.35 29.9-27.7 29.9-23.2L29.9-23.2Q29.9-18.55 26.78-16.03 23.65-13.5 18.35-13.5L18.35-13.5 17.85-13.2 10.2-13.2 10.2 0 4.9 0 4.9-33ZM10.2-17.65L17.95-17.65Q21.2-17.65 22.78-18.98 24.35-20.3 24.35-23.05L24.35-23.05Q24.35-25.75 22.78-27.1 21.2-28.45 17.95-28.45L17.95-28.45 10.2-28.45 10.2-17.65ZM16.5-14.45L21.1-16.55 31.85 0 25.7 0 16.5-14.45Z" opacity="1" transform="matrix(1,0,0,1,0,0)" fill="#61777f" class="wordmark-text-0" data-fill-palette-color="primary" id="text-0"></path></svg></g></svg></g></svg></g></svg></g></svg></g></svg></g></svg></g><path d="M317.68 41.215L317.68 0 70.48 0 70.48 247.2 317.68 247.2 317.68 205.985 303.903 205.985 303.903 233.423 84.257 233.423 84.257 13.777 303.903 13.777 303.903 41.215Z" fill="#61777f" stroke="transparent" data-fill-palette-color="primary"></path></svg></g><defs></defs></svg><rect width="395.52" height="247.2" fill="none" stroke="none" visibility="hidden"></rect></g></svg></g></svg>